Language: French

Subtitles: German, French & English (Selectable) English.srt
 
http://www.imdb.com/title/tt0089821/ 


Mangin, a police inspector in Paris, leans hard on informants to get evidence on three Tunisian brothers who traffic in drugs. He arrests one, Simon, and his girl-friend Noria. Simon's brothers go to their lawyer. He springs Noria, who promptly steals 2 million francs that belong to the Tunisians. They suspect her of the theft; her life as well as the lawyer's is in danger. Meanwhile, Noria is playing with both the lawyer and Mangin's affections. Mangin is mercurial anyway: intimidating and bloodying suspects, falling for a police commission trainee before flipping for Noria, wearing his emotions on his sleeve. Can he save the lawyer and Noria, and can he convince her to love?


Maurice Pialat - Police (1985).mkv
      Format : Matroska
      File size : 1.47 GiB
      Duration : 1h 48mn
      Overall bit rate : 1 943 Kbps
      Encoded date : UTC 2012-07-18 15:44:03
      Writing application : mkvmerge v5.6.0 ('Kenya Kane') built on May 27 2012 16:44:04
      Writing library : libebml v1.2.3 + libmatroska v1.3.0
   Video #1
      ID : 1
      Format : AVC
      Format/Info : Advanced Video Codec
      Format profile : High@L4.1
      Format settings, CABAC : Yes
      Format settings, ReFrames : 4 frames
      Muxing mode : Container profile=Unknown@4.1
      Codec ID : V_MPEG4/ISO/AVC
      Duration : 1h 48mn
      Bit rate : 1 680 Kbps
      Nominal bit rate : 1 706 Kbps
      Width : 720 pixels
      Height : 432 pixels
      Display aspect ratio : 1.667
      Frame rate : 25.000 fps
      Resolution : 24 bits
      Colorimetry : 4:2:0
      Scan type : Progressive
      Bits/(Pixel*Frame) : 0.216
      Stream size : 1.27 GiB (86%)
      Writing library : x264 core 125 r2200 999b753
      Encoding settings : cabac=1 / ref=3 / deblock=1:0:0 / analyse=0x3:0x113 / me=hex / subme=7 / psy=1 / psy_rd=1.00:0.00 / mixed_ref=1 / me_range=16 / chroma_me=1 / trellis=1 / 8x8dct=1 / cqm=0 / deadzone=21,11 / fast_pskip=1 / chroma_qp_offset=-2 / threads=3 / lookahead_threads=1 / sliced_threads=0 / nr=0 / decimate=1 / interlaced=0 / bluray_compat=0 / constrained_intra=0 / bframes=3 / b_pyramid=2 / b_adapt=1 / b_bias=0 / direct=1 / weightb=1 / open_gop=0 / weightp=2 / keyint=250 / keyint_min=25 / scenecut=40 / intra_refresh=0 / rc_lookahead=40 / rc=2pass / mbtree=1 / bitrate=1706 / ratetol=1.0 / qcomp=0.60 / qpmin=0 / qpmax=69 / qpstep=4 / cplxblur=20.0 / qblur=0.5 / ip_ratio=1.40 / aq=1:1.00
   Audio #2
      ID : 2
      Format : AC-3
      Format/Info : Audio Coding 3
      Codec ID : A_AC3
      Duration : 1h 48mn
      Bit rate mode : Constant
      Bit rate : 224 Kbps
      Channel(s) : 2 channels
      Channel positions : L R
      Sampling rate : 48.0 KHz
      Stream size : 174 MiB (12%)
   Text #3
      ID : 3
      Format : VobSub
      Codec ID : S_VOBSUB
      Codec ID/Info : The same subtitle format used on DVDs
      Language : German
   Text #4
      ID : 4
      Format : VobSub
      Codec ID : S_VOBSUB
      Codec ID/Info : The same subtitle format used on DVDs
      Language : French
   Text #5
      ID : 5
      Format : VobSub
      Codec ID : S_VOBSUB
      Codec ID/Info : The same subtitle format used on DVDs
      Language : German
   Text #6
      ID : 6
      Format : VobSub
      Codec ID : S_VOBSUB
      Codec ID/Info : The same subtitle format used on DVDs
      Language : French
   Text #7
      ID : 7
      Format : VobSub
      Codec ID : S_VOBSUB
      Codec ID/Info : The same subtitle format used on DVDs